# xmcd CD database file
#
# Track frame offsets:
#	150
#	18880
#	34245
#	51118
#	63126
#	73152
#	90243
#	103809
#	115394
#	129630
#
# Disc length: 1912 seconds
#
# Revision: 0
# Processed by: cddbd v1.5.1PL2 Copyright (c) Steve Scherf et al.
# Submitted via: CDex 1.51
#
DISCID=8307760a
DTITLE=Family Band - Pisi mi mati
DYEAR=2004
DGENRE=Narodne
TTITLE0=Pisi mi mati
TTITLE1=Pozdravi mi Stubicu
TTITLE2=Vec tri dana - mix
TTITLE3=Najlepse je Zagorje
TTITLE4=Ceska polka
TTITLE5=Kraj kapele Svete Ane
TTITLE6=Moj Smokey i ja
TTITLE7=Oj jesenske duge noci
TTITLE8=Stara Bistra
TTITLE9=Svira muzika
EXTD=YEAR: 2004
EXTT0=
EXTT1=
EXTT2=
EXTT3=
EXTT4=
EXTT5=
EXTT6=
EXTT7=
EXTT8=
EXTT9=
PLAYORDER=
